<svg xmlns="http://www.w3.org/2000/svg" xmlns:xlink="http://www.w3.org/1999/xlink" fill="none" version="1.1" width="800" height="800" viewBox="0 0 800 800"><defs><clipPath id="master_svg0_39_6730"><rect x="0" y="0" width="800" height="800" rx="0"/></clipPath></defs><g clip-path="url(#master_svg0_39_6730)"><rect x="0" y="0" width="800" height="800" rx="0" fill="#000000" fill-opacity="1"/><g><g><g><path d="M245.05362701416016,477.052375L353.2396270141602,439.347375L353.2396270141602,318.234375L245.05362701416016,355.939475L245.05362701416016,477.052375Z" fill="#0000FE" fill-opacity="1"/></g><g><path d="M220,486.193L328.18600000000004,448.488L328.18600000000004,327.375L220,365.0801L220,486.193Z" fill="#FFFFFF" fill-opacity="1"/></g><g><path d="M274.6624565124512,475.91L274.6624565124512,677.004L393.0974565124512,640.441L393.0974565124512,569.602Q495.5894565124512,530.754,528.6154565124511,521.613Q561.6404565124512,512.473,581.0004565124511,458.771L581.0004565124511,108L274.6624565124512,216.54500000000002L274.6624565124512,335.373L465.98145651245113,266.818L465.98145651245113,413.068L274.6624565124512,475.91Z" fill="#0000FE" fill-opacity="1"/></g><g><path d="M220,693.00025L338.435,656.43725L338.435,587.88325Q437.51099999999997,551.32025,473.953,539.89425Q510.394,528.46925,526.338,477.05225L526.338,126.28125L220,234.82625000000002L220,353.65425L411.31899999999996,285.09925L411.31899999999996,431.34925L220,494.19125L220,693.00025Z" fill="#FFFFFF" fill-opacity="1"/></g></g></g></g></svg>